{"accessors" : [{"bufferView" : 0, "byteOffset" : 0, "componentType" : 5123, "count" : 6, "type" : "SCALAR", "max" : [4], "min" : [0]}, {"bufferView" : 1, "byteOffset" : 0, "componentType" : 5126, "count" : 5, "type" : "VEC3", "max" : [11.658293724060059, 8.624094009399414, 5.932449817657471], "min" : [3.615246057510376, 2.6819229125976562, -4.067551136016846], "name" : "POSITION"}, {"bufferView" : 0, "byteOffset" : 12, "componentType" : 5123, "count" : 6, "type" : "SCALAR", "max" : [4], "min" : [0]}, {"bufferView" : 2, "byteOffset" : 0, "componentType" : 5126, "count" : 5, "type" : "VEC3", "max" : [356.6393737792969, 0.1293960064649582, 356.9324645996094], "min" : [-355.3606262207031, 0.1293960064649582, -355.0675354003906], "name" : "POSITION"}, {"bufferView" : 0, "byteOffset" : 24, "componentType" : 5123, "count" : 14208, "type" : "SCALAR", "max" : [10079], "min" : [0]}, {"bufferView" : 3, "byteOffset" : 0, "componentType" : 5126, "count" : 10080, "type" : "VEC3", "max" : [1.658120036125183, 1.241623044013977, 0.9558169841766357], "min" : [-0.3227120041847229, 0.1357859969139099, -1.0250149965286255], "name" : "POSITION"}], "asset" : {"generator" : "Aspose.3D 22.7", "version" : "2.0"}, "buffers" : [{"uri" : "data:application/octet-stream;base64,", "byteLength" : 199096}], "bufferViews" : [{"buffer" : 0, "byteOffset" : 0, "byteLength" : 28440, "target" : 34963}, {"buffer" : 0, "byteOffset" : 28444, "byteLength" : 72, "byteStride" : 12, "target" : 34962}, {"buffer" : 0, "byteOffset" : 28520, "byteLength" : 72, "byteStride" : 12, "target" : 34962}, {"buffer" : 0, "byteOffset" : 28596, "byteLength" : 170496, "byteStride" : 12, "target" : 34962}], "meshes" : [{"primitives" : [{"attributes" : {"POSITION" : 1}, "indices" : 0, "mode" : 4}], "name" : ""}, {"primitives" : [{"attributes" : {"POSITION" : 3}, "indices" : 2, "mode" : 4}], "name" : ""}, {"primitives" : [{"attributes" : {"POSITION" : 5}, "indices" : 4, "mode" : 4}], "name" : ""}], "nodes" : [{"mesh" : 0, "name" : "Plane.001"}, {"mesh" : 1, "name" : "Plane"}, {"mesh" : 2, "name" : "Sphere"}], "scene" : 0, "scenes" : [{"nodes" : [0, 1, 2]}]}